<svg width="75" height="86" viewBox="0 0 75 86" fill="none" xmlns="http://www.w3.org/2000/svg">
<path fill-rule="evenodd" clip-rule="evenodd" d="M73.2293 34.8585H17.2623L71.0192 19.2636C71.437 19.1423 71.7895 18.8593 71.9996 18.4781C72.2098 18.0963 72.2598 17.6471 72.1387 17.2287L69.3256 7.50357C68.2017 3.61929 64.5901 0.906128 60.5429 0.906128C59.69 0.906128 58.8403 1.02741 58.0162 1.26613L7.54404 15.9081C5.20962 16.5851 3.27506 18.1393 2.09536 20.2833C0.916296 22.4272 0.639473 24.8959 1.31551 27.233L4.06388 36.7342V75.8741C4.06388 80.9154 8.1592 85.0166 13.1926 85.0166H32.9048C33.8108 85.0166 34.5452 84.2812 34.5452 83.3738C34.5452 82.4664 33.8108 81.731 32.9048 81.731H13.1933C9.96816 81.731 7.34475 79.1039 7.34475 75.8741V53.5182H15.7488H15.7526H15.7558H28.6025H28.6063H28.6102H41.4568H41.4607H41.4645H54.3111H54.315H54.3182H71.5889V75.8741C71.5889 79.1039 68.9655 81.731 65.7404 81.731H46.0282C45.1228 81.731 44.3878 82.4664 44.3878 83.3738C44.3878 84.2812 45.1228 85.0166 46.0282 85.0166H65.7404C70.7744 85.0166 74.8698 80.9154 74.8698 75.8741V36.5013C74.8698 35.5939 74.1354 34.8585 73.2293 34.8585ZM44.3032 50.2326L51.2731 38.144H60.3385L53.3692 50.2326H44.3032ZM31.4489 50.2326L38.4188 38.144H47.4841L40.5148 50.2326H31.4489ZM18.5952 50.2326L25.5645 38.144H34.6304L27.6605 50.2326H18.5952ZM24.6943 28.9656L13.0228 17.7395L21.7678 15.2028C21.8293 15.2927 21.901 15.3774 21.9831 15.4563L33.6545 26.6824L24.9096 29.2191C24.8481 29.1293 24.7756 29.0439 24.6943 28.9656ZM46.6761 8.29288L58.3475 19.519L49.6026 22.0557C49.5411 21.9658 49.4693 21.8805 49.3873 21.8022L37.7159 10.5761L46.4608 8.0394C46.5223 8.12924 46.5941 8.21394 46.6761 8.29288ZM34.3293 11.8749L46.0007 23.1004L37.2558 25.6377C37.1942 25.5479 37.1225 25.4625 37.0405 25.3842L25.369 14.1581L34.1139 11.6214C34.1761 11.7106 34.2479 11.796 34.3293 11.8749ZM58.9294 4.42207C59.4561 4.26934 59.9988 4.19169 60.5429 4.19169C63.1387 4.19169 65.4539 5.92945 66.1742 8.41801L68.531 16.5645L61.9494 18.4736C61.8873 18.3838 61.8155 18.2991 61.7335 18.2202L50.0627 6.99469L58.9294 4.42207ZM4.96932 21.8683C5.72546 20.4931 6.96412 19.4972 8.45717 19.064L9.42092 18.7842C9.48308 18.8741 9.55485 18.9594 9.63623 19.0377L21.3077 30.2638L6.82378 34.4657L4.46694 26.3192C4.0344 24.8247 4.21318 23.2441 4.96932 21.8683ZM7.34475 38.144H21.7761L14.8068 50.2326H7.34475V38.144ZM57.1576 50.2326L64.1268 38.144H71.5889V50.2326H57.1576Z" fill="#1D3244"/>
<path fill-rule="evenodd" clip-rule="evenodd" d="M50.8099 67.4574C50.8099 66.8703 50.4972 66.328 49.9896 66.0348L35.5775 57.7021C35.07 57.4089 34.4446 57.4089 33.9371 57.7021C33.4296 57.9954 33.1169 58.5376 33.1169 59.1248V75.7901C33.1169 76.3766 33.4296 76.9188 33.9371 77.2121C34.1909 77.359 34.4741 77.4328 34.7573 77.4328C35.0405 77.4328 35.3238 77.359 35.5775 77.2121L49.9896 68.8801C50.4972 68.5868 50.8099 68.0446 50.8099 67.4574ZM36.3978 72.9447V61.9702L45.8886 67.4574L36.3978 72.9447Z" fill="#1D3244"/>
<path fill-rule="evenodd" clip-rule="evenodd" d="M39.4665 81.731C38.563 81.731 37.8261 82.4689 37.8261 83.3737C37.8261 84.2786 38.563 85.0165 39.4665 85.0165C40.3707 85.0165 41.107 84.2786 41.107 83.3737C41.107 82.4689 40.3707 81.731 39.4665 81.731Z" fill="#1D3244"/>
</svg>
