<svg width="209" height="47" viewBox="0 0 209 47" fill="none" xmlns="http://www.w3.org/2000/svg">
<path d="M36.548 22.7152C38.084 22.7152 39.3292 21.4745 39.3292 19.944C39.3292 18.4136 38.084 17.1729 36.548 17.1729C35.0121 17.1729 33.7669 18.4136 33.7669 19.944C33.7669 21.4745 35.0121 22.7152 36.548 22.7152Z" fill="#1D3244"/>
<path d="M27.7495 17.169C28.3005 17.1682 28.8393 17.3304 29.2978 17.6348C29.7563 17.9393 30.1139 18.3724 30.3252 18.8794C30.5366 19.3864 30.5923 19.9445 30.4853 20.4831C30.3783 21.0216 30.1133 21.5164 29.724 21.9049C29.3347 22.2934 28.8384 22.5581 28.2981 22.6654C27.7578 22.7728 27.1976 22.7181 26.6885 22.5082C26.1794 22.2983 25.7442 21.9426 25.438 21.4862C25.1318 21.0297 24.9684 20.493 24.9684 19.944C24.9684 19.2087 25.2613 18.5035 25.7827 17.9832C26.3042 17.4628 27.0116 17.17 27.7495 17.169Z" fill="#1D3244"/>
<path d="M18.9548 22.7152C20.4908 22.7152 21.736 21.4745 21.736 19.944C21.736 18.4136 20.4908 17.1729 18.9548 17.1729C17.4189 17.1729 16.1737 18.4136 16.1737 19.944C16.1737 21.4745 17.4189 22.7152 18.9548 22.7152Z" fill="#1D3244"/>
<path d="M90.0452 17.169C90.5961 17.1682 91.135 17.3304 91.5935 17.6348C92.052 17.9393 92.4095 18.3724 92.6209 18.8794C92.8323 19.3864 92.888 19.9445 92.781 20.4831C92.6739 21.0216 92.409 21.5164 92.0197 21.9049C91.6303 22.2934 91.1341 22.5581 90.5938 22.6654C90.0534 22.7728 89.4933 22.7181 88.9842 22.5082C88.475 22.2983 88.0399 21.9426 87.7337 21.4862C87.4275 21.0297 87.264 20.493 87.264 19.944C87.264 19.2087 87.5569 18.5035 88.0784 17.9832C88.5998 17.4628 89.3072 17.17 90.0452 17.169Z" fill="#AA0E00"/>
<path d="M81.2505 17.169C81.8013 17.169 82.3398 17.3318 82.7978 17.6367C83.2557 17.9416 83.6127 18.375 83.8235 18.8821C84.0343 19.3891 84.0894 19.9471 83.982 20.4854C83.8745 21.0237 83.6093 21.5182 83.2198 21.9063C82.8303 22.2944 82.3341 22.5587 81.7938 22.6657C81.2536 22.7728 80.6936 22.7179 80.1847 22.5078C79.6758 22.2978 79.2409 21.9421 78.9349 21.4858C78.6289 21.0294 78.4655 20.4929 78.4655 19.944C78.465 19.5795 78.5367 19.2184 78.6765 18.8815C78.8163 18.5446 79.0214 18.2385 79.2801 17.9807C79.5388 17.7229 79.846 17.5185 80.1841 17.3792C80.5223 17.2399 80.8846 17.1685 81.2505 17.169Z" fill="#AA0E00"/>
<path d="M72.452 17.169C73.0029 17.1682 73.5418 17.3304 74.0003 17.6348C74.4588 17.9393 74.8163 18.3724 75.0277 18.8794C75.2391 19.3864 75.2948 19.9445 75.1878 20.4831C75.0807 21.0216 74.8158 21.5164 74.4265 21.9049C74.0371 22.2934 73.5409 22.5581 73.0006 22.6654C72.4602 22.7728 71.9001 22.7181 71.391 22.5082C70.8818 22.2983 70.4467 21.9426 70.1405 21.4862C69.8343 21.0297 69.6708 20.493 69.6708 19.944C69.6703 19.5798 69.7419 19.219 69.8814 18.8824C70.021 18.5457 70.2257 18.2398 70.4841 17.982C70.7424 17.7243 71.0491 17.5198 71.3868 17.3803C71.7245 17.2408 72.0864 17.169 72.452 17.169Z" fill="#AA0E00"/>
<path d="M54.5 11.4998C53.8367 11.5008 53.201 11.7641 52.7323 12.2318C52.2637 12.6995 52.0005 13.3334 52.0005 13.9943V28.984C51.9984 30.5002 51.3931 31.9537 50.3171 33.0258C49.2411 34.0979 47.7824 34.7011 46.2608 34.7032H25.0995L21.0417 39.0502L16.9722 34.6839H10.7426C9.223 34.6789 7.76724 34.0743 6.69378 33.0025C5.62032 31.9307 5.01654 30.479 5.01451 28.9648V10.7042C5.01858 9.1917 5.62338 7.7423 6.69673 6.67279C7.77008 5.60328 9.22468 5.00064 10.7426 4.99658H46.8779C47.5431 3.17841 48.5178 1.48812 49.7594 0L10.7426 0C7.89444 0.00305216 5.16379 1.13179 3.14982 3.13856C1.13586 5.14533 0.00306311 7.86621 0 10.7042L0 28.9648C0.00306311 31.8028 1.13586 34.5237 3.14982 36.5304C5.16379 38.5372 7.89444 39.6659 10.7426 39.669H14.7967L21.0417 46.3836L27.2866 39.669H46.2608C49.109 39.6659 51.8396 38.5372 53.8536 36.5304C55.8675 34.5237 57.0003 31.8028 57.0034 28.9648V13.9943C57.0024 13.333 56.7383 12.6991 56.269 12.2315C55.7998 11.764 55.1636 11.5008 54.5 11.4998Z" fill="#AA0E00"/>
<path d="M98.2574 0H62.7393C59.8914 0.00305378 57.1612 1.13192 55.1478 3.1388C53.1345 5.14567 52.0025 7.86657 52.0005 10.7042V19.2445C52.0005 19.9071 52.2646 20.5425 52.7348 21.0111C53.205 21.4796 53.8428 21.7428 54.5077 21.7428C55.1727 21.7428 55.8104 21.4796 56.2806 21.0111C56.7508 20.5425 57.015 19.9071 57.015 19.2445V10.7042C57.0191 9.19236 57.6233 7.74354 58.6959 6.67414C59.7684 5.60474 61.222 5.00165 62.7393 4.99658H98.2574C99.7794 4.9976 101.239 5.60048 102.315 6.67281C103.391 7.74514 103.996 9.19923 103.997 10.7157V28.9648C103.995 30.481 103.39 31.9345 102.314 33.0066C101.238 34.0787 99.779 34.6819 98.2574 34.6839H92.0201L87.9468 39.0502L83.9005 34.6839H62.1028C61.4451 36.5015 60.4768 38.1919 59.2407 39.6805H81.698L87.9468 46.3836L94.1918 39.669H98.2458C101.094 39.6659 103.825 38.5372 105.839 36.5304C107.853 34.5237 108.985 31.8028 108.988 28.9648V10.7042C108.985 7.86821 107.854 5.14906 105.843 3.14263C103.831 1.13619 101.104 0.00610167 98.2574 0Z" fill="#1D3244"/>
<path d="M129.7 26.5788H134.016V28.7273H127V17.1237H129.7V26.5788Z" fill="#1D3244"/>
<path d="M142.788 17.1237V19.1915H138.009V21.882H141.669V23.8729H138.009V26.6364H142.788V28.7042H135.293V17.1237H142.788Z" fill="#1D3244"/>
<path d="M152.775 17.1237V19.2568H149.5V28.7196H146.8V19.2645H143.521V17.1237H152.775Z" fill="#1D3244"/>
<path d="M155.968 17.1237V19.3991L155.745 20.6559C155.719 20.8934 155.631 21.1199 155.49 21.3131C155.414 21.3948 155.319 21.4578 155.214 21.4971C155.109 21.5364 154.996 21.5511 154.885 21.5399C154.779 21.546 154.674 21.5289 154.576 21.4897C154.478 21.4505 154.389 21.3902 154.318 21.3131C154.165 21.1236 154.068 20.8964 154.036 20.6559L153.812 19.3991V17.1237H155.968Z" fill="#1D3244"/>
<path d="M164.293 19.4874C164.23 19.5984 164.144 19.6953 164.042 19.7719C163.942 19.8401 163.823 19.8738 163.702 19.8679C163.566 19.8612 163.434 19.8216 163.317 19.7526L162.838 19.4951C162.643 19.3923 162.439 19.3061 162.229 19.2376C161.98 19.1585 161.719 19.1196 161.457 19.1223C161.055 19.0919 160.654 19.2049 160.327 19.4413C160.202 19.5487 160.102 19.6829 160.035 19.8339C159.968 19.9849 159.936 20.1489 159.941 20.3138C159.939 20.4204 159.957 20.5266 159.995 20.6262C160.034 20.7258 160.091 20.8168 160.165 20.8942C160.337 21.0568 160.537 21.187 160.755 21.2785C161.024 21.4013 161.301 21.5041 161.585 21.586C161.897 21.6782 162.213 21.782 162.541 21.8935C162.866 22.0095 163.185 22.1443 163.494 22.2971C163.797 22.4486 164.073 22.6486 164.312 22.889C164.563 23.1395 164.763 23.4357 164.902 23.7614C165.059 24.1548 165.135 24.5757 165.126 24.999C165.128 25.5145 165.033 26.0258 164.844 26.5057C164.663 26.965 164.387 27.3814 164.034 27.7279C163.658 28.0877 163.212 28.3664 162.723 28.5466C162.157 28.7534 161.558 28.8538 160.956 28.8426C160.584 28.843 160.213 28.8056 159.849 28.7311C159.477 28.6595 159.111 28.5553 158.757 28.4198C158.413 28.2887 158.081 28.1266 157.766 27.9355C157.473 27.7628 157.202 27.555 156.96 27.3167L157.758 26.0599C157.819 25.9626 157.904 25.883 158.005 25.8292C158.11 25.77 158.228 25.7395 158.348 25.7408C158.521 25.7442 158.69 25.7961 158.834 25.8907L159.386 26.2251C159.611 26.3577 159.847 26.4697 160.092 26.5595C160.394 26.6669 160.713 26.719 161.033 26.7133C161.444 26.7399 161.853 26.626 162.19 26.3904C162.334 26.2631 162.446 26.104 162.517 25.9257C162.588 25.7475 162.616 25.5552 162.599 25.3642C162.61 25.1249 162.53 24.8902 162.375 24.7069C162.213 24.5255 162.013 24.3812 161.789 24.2842C161.521 24.1627 161.244 24.0637 160.96 23.9882C160.651 23.9036 160.335 23.8114 160.011 23.7076C159.685 23.6038 159.368 23.4753 159.062 23.3233C158.753 23.1742 158.472 22.9726 158.233 22.7275C157.978 22.4616 157.779 22.1481 157.646 21.8051C157.485 21.3674 157.409 20.9029 157.423 20.4368C157.424 19.9995 157.513 19.567 157.685 19.1646C157.863 18.7468 158.126 18.3701 158.456 18.0576C158.822 17.7245 159.247 17.4636 159.71 17.2889C160.254 17.0886 160.831 16.9908 161.411 17.0007C161.761 17 162.111 17.027 162.456 17.0814C162.784 17.1351 163.105 17.2187 163.417 17.3312C163.712 17.4336 163.997 17.5623 164.269 17.7156C164.524 17.86 164.76 18.0328 164.975 18.2306L164.293 19.4874Z" fill="#1D3244"/>
<path d="M178.001 17.1237V19.2568H174.727V28.7196H172.026V19.2645H168.752V17.1237H178.001Z" fill="#AA0E00"/>
<path d="M188.69 28.7273H186.599C186.393 28.7355 186.189 28.679 186.017 28.5659C185.871 28.4627 185.761 28.316 185.704 28.1469L185.014 26.1252H180.59L179.903 28.1469C179.834 28.3217 179.712 28.471 179.555 28.5748C179.398 28.6786 179.212 28.7318 179.024 28.7273H176.914L181.407 17.1237H184.169L188.69 28.7273ZM181.215 24.2957H184.393L183.29 21.1171L183.047 20.4061C182.954 20.1332 182.862 19.8372 182.773 19.5182C182.688 19.8411 182.599 20.1409 182.507 20.4176C182.418 20.6943 182.333 20.9326 182.252 21.1363L181.215 24.2957Z" fill="#AA0E00"/>
<path d="M192.32 26.5788H196.632V28.7273H189.62V17.1237H192.32V26.5788Z" fill="#AA0E00"/>
<path d="M200.609 21.8281H201.033C201.198 21.8416 201.364 21.8135 201.515 21.7463C201.666 21.6791 201.797 21.5751 201.897 21.4438L204.517 17.6579C204.636 17.4716 204.808 17.3246 205.01 17.2351C205.226 17.1538 205.455 17.1159 205.685 17.1237H208.034L204.582 21.8128C204.472 21.9679 204.342 22.1087 204.196 22.2317C204.072 22.3397 203.936 22.4338 203.791 22.5123C203.991 22.5856 204.179 22.6893 204.347 22.8198C204.527 22.9663 204.683 23.1417 204.806 23.3386L208.32 28.7196H205.909C205.78 28.7219 205.651 28.7116 205.523 28.6888C205.425 28.6721 205.33 28.6396 205.242 28.5927C205.164 28.5536 205.094 28.5016 205.033 28.439C204.971 28.3733 204.914 28.3026 204.864 28.2276L202.229 24.1919C202.144 24.0519 202.017 23.9417 201.867 23.8767C201.675 23.8079 201.472 23.7766 201.269 23.7845H200.613V28.7196H197.913V17.1237H200.613L200.609 21.8281Z" fill="#AA0E00"/>
</svg>
