<svg width="88" height="89" viewBox="0 0 88 89" fill="none" xmlns="http://www.w3.org/2000/svg">
<path d="M23.6052 70.1789V76.2004C23.6052 78.3586 25.3584 80.1145 27.5135 80.1145H60.4866C62.6417 80.1145 64.3949 78.3586 64.3949 76.2004V70.1789C64.3949 68.0235 62.6417 66.2697 60.4866 66.2697H27.5135C25.3584 66.2698 23.6052 68.0235 23.6052 70.1789ZM60.96 70.1789V76.2004C60.96 76.4574 60.7432 76.6746 60.4866 76.6746H27.5135C27.2524 76.6746 27.0401 76.462 27.0401 76.2004V70.1789C27.0401 69.9245 27.2569 69.7095 27.5135 69.7095H60.4866C60.7432 69.7097 60.96 69.9247 60.96 70.1789Z" fill="#1D3244"/>
<path d="M83.4166 49.3267H82.554V42.0168C82.554 42.0132 82.554 42.0103 82.554 42.0066C82.554 42.0044 82.554 42.002 82.554 41.9998C82.5534 41.841 82.5452 41.755 82.5272 41.7211C82.4772 41.4327 82.3546 41.153 82.1533 40.9124L78.1588 36.1363C79.4003 34.1467 79.2923 31.4989 77.7074 29.6042L76.1084 27.6964C75.1606 26.5594 73.8225 25.8602 72.3405 25.728C70.8548 25.5954 69.4109 26.048 68.2733 27.0024C68.2728 27.0029 68.2721 27.0035 68.2714 27.0041C65.9234 28.9802 65.6176 32.4993 67.587 34.8464L69.1846 36.7584C70.1361 37.8958 71.4766 38.5945 72.9587 38.7252C73.1262 38.74 73.2928 38.7474 73.4587 38.7474C74.1752 38.7474 74.8746 38.6101 75.5269 38.3468L79.1192 42.642V49.3269H65.3077C65.1703 39.6672 63.7189 34.8686 56.7777 31.5353L54.0215 28.711C56.0521 26.6588 57.4772 24.132 57.4772 21.4706V17.2822V14.1958C57.4771 6.75206 51.4302 0.696167 43.9974 0.696167C36.5647 0.696167 30.5181 6.75206 30.5181 14.1958V17.282V21.4704C30.5181 24.1327 31.9442 26.66 33.9758 28.7126L31.2182 31.5348C24.2765 34.8682 22.825 39.6668 22.6876 49.3267H8.8762V42.6418L12.4685 38.3466C13.1209 38.6099 13.8206 38.7472 14.5375 38.7472C14.7057 38.7472 14.8747 38.7396 15.0442 38.7245C16.5264 38.5922 17.8646 37.8932 18.8098 36.7593L20.4104 34.8491C21.3624 33.7147 21.8153 32.2721 21.6857 30.7871C21.5558 29.3001 20.8584 27.9561 19.7217 27.0024C18.586 26.0496 17.1441 25.5969 15.6625 25.7274C14.1803 25.8582 12.84 26.5566 11.8893 27.693L10.2847 29.6078C8.70754 31.5001 8.60055 34.1452 9.83799 36.1344L5.84176 40.9126C5.59925 41.2026 5.47027 41.5493 5.44657 41.8998C5.44399 41.9263 5.44228 41.9559 5.44159 41.9889C5.44142 41.9958 5.44107 42.0027 5.44107 42.0096C5.44107 42.0121 5.4409 42.0142 5.4409 42.017V49.3269H4.58302C2.07413 49.3267 0.0325623 51.3712 0.0325623 53.8842V56.8487C0.0325623 59.3617 2.07413 61.4062 4.58336 61.4062H6.68659L12.9228 85.852C13.0826 86.4854 13.5696 88.4129 15.7952 88.4129H72.2046C74.4152 88.4129 74.9117 86.4923 75.0761 85.8561L81.3132 61.4063H83.4166C85.9259 61.4063 87.9674 59.3618 87.9674 56.8488V53.8844C87.9674 51.3712 85.9259 49.3267 83.4166 49.3267ZM74.8112 34.8134C74.3786 35.1764 73.8287 35.3483 73.2598 35.2984C72.6918 35.2483 72.1795 34.9823 71.818 34.55L70.2187 32.6359C69.4656 31.7384 69.583 30.3936 70.4804 29.6377C70.9134 29.275 71.4656 29.1025 72.0351 29.1539C72.602 29.2045 73.1121 29.4697 73.474 29.904L75.0747 31.814C75.8278 32.7143 75.7096 34.0597 74.8112 34.8134ZM12.9191 31.8157L14.5219 29.9033C14.8839 29.4702 15.3963 29.2043 15.9641 29.1542C16.0286 29.1486 16.0929 29.1456 16.1568 29.1456C16.6557 29.1456 17.1323 29.3176 17.5156 29.6393C17.9484 30.0022 18.214 30.5164 18.2638 31.0869C18.3134 31.6557 18.142 32.2059 17.7801 32.6371L16.1757 34.5519C15.8165 34.9828 15.3063 35.248 14.7393 35.2985C14.1691 35.3501 13.617 35.1771 13.1855 34.8152C12.2892 34.0604 12.1708 32.7133 12.9191 31.8157ZM43.9974 4.13604C49.5359 4.13604 54.0419 8.64881 54.0419 14.1958V15.4864C50.6049 15.1932 47.7716 14.1029 45.2304 13.1251C42.9499 12.2474 40.7277 11.3923 38.5303 11.3923C37.0257 11.3923 35.5325 11.7935 34.0405 12.8633C34.6937 7.94381 38.9099 4.13604 43.9974 4.13604ZM33.9531 21.4704V17.831C37.0124 13.6478 39.2579 14.5117 43.9983 16.3361C46.6988 17.3753 49.9809 18.637 54.0419 18.9358V21.4706C54.0419 25.696 47.5102 30.1652 43.9974 30.1652C40.4848 30.165 33.9531 25.696 33.9531 21.4704ZM53.2955 32.8887L48.5766 37.2474L46.5724 33.2093C48.1381 32.7659 49.8113 31.9681 51.3652 30.911L53.2955 32.8887ZM41.4224 33.2092L39.4185 37.2472L34.7002 32.8893L36.6319 30.9122C38.1853 31.9687 39.8576 32.7661 41.4224 33.2092ZM31.9387 35.0184L38.7729 41.3307C39.0928 41.6264 39.5097 41.7863 39.9373 41.7863C40.0409 41.7863 40.1451 41.7769 40.2487 41.7578C40.7804 41.6597 41.2349 41.3166 41.4755 40.8318L43.9976 35.7495L46.5199 40.8318C46.7603 41.3166 47.215 41.6596 47.7467 41.7578C48.2789 41.856 48.8249 41.6974 49.2225 41.3307L56.0567 35.0184C60.4876 37.3764 61.741 40.4919 61.8729 49.3267H26.1226C26.2545 40.4919 27.5079 37.3764 31.9387 35.0184ZM84.5325 56.8487C84.5325 57.4649 84.032 57.9663 83.4166 57.9663H51.7041C50.7557 57.9663 49.9866 58.7365 49.9866 59.6862C49.9866 60.636 50.7557 61.4062 51.7041 61.4062H77.768L71.7562 84.9731L16.2438 84.9729L10.2318 61.4063H36.2763C37.2247 61.4063 37.9938 60.6361 37.9938 59.6864C37.9938 58.7366 37.2247 57.9665 36.2763 57.9665H4.58336C3.97864 57.9665 3.46752 57.4546 3.46752 56.8488V53.8844C3.46752 53.2786 3.97864 52.7667 4.58336 52.7667H83.4166C84.0214 52.7667 84.5325 53.2786 84.5325 53.8844V56.8487Z" fill="#1D3244"/>
<path d="M43.9926 61.4063H43.9975C44.9458 61.4063 45.7125 60.6361 45.7125 59.6864C45.7125 58.7366 44.941 57.9664 43.9925 57.9664C43.0439 57.9664 42.275 58.7366 42.275 59.6864C42.275 60.6361 43.0443 61.4063 43.9926 61.4063Z" fill="#1D3244"/>
</svg>
