<svg width="75" height="75" viewBox="0 0 75 75" fill="none" xmlns="http://www.w3.org/2000/svg">
<path d="M56.3422 15.6478C61.2797 20.6494 64.0316 27.41 63.993 34.443C63.9914 34.5949 64.0198 34.7457 64.0765 34.8866C64.1331 35.0275 64.2169 35.1559 64.3231 35.2644C64.4293 35.3729 64.5558 35.4594 64.6954 35.519C64.835 35.5785 64.9849 35.6099 65.1366 35.6114H65.1482C65.4525 35.6114 65.7446 35.4911 65.9609 35.2767C66.1772 35.0622 66.3003 34.771 66.3033 34.4662C66.3476 26.816 63.3558 19.4615 57.986 14.0202C55.3216 11.3311 52.152 9.19671 48.66 7.7402C45.1679 6.28369 41.4225 5.53381 37.6397 5.53381C33.8569 5.53381 30.1115 6.28369 26.6195 7.7402C23.1274 9.19671 19.9578 11.3311 17.2934 14.0202C11.9236 19.4615 8.93179 26.816 8.97607 34.4662C8.97759 34.6181 9.00897 34.7682 9.06842 34.908C9.12788 35.0477 9.21424 35.1744 9.32258 35.2808C9.43093 35.3871 9.55912 35.4711 9.69986 35.5278C9.84059 35.5845 9.99111 35.6129 10.1428 35.6114C10.2945 35.6099 10.4444 35.5785 10.584 35.5189C10.7236 35.4594 10.8501 35.3729 10.9563 35.2644C11.0625 35.1559 11.1463 35.0275 11.2029 34.8866C11.2596 34.7457 11.288 34.5949 11.2864 34.443C11.2478 27.41 13.9997 20.6494 18.9372 15.6478C21.3868 13.1759 24.3007 11.214 27.511 9.87517C30.7213 8.53632 34.1645 7.84704 37.642 7.84704C41.1196 7.84704 44.5627 8.53632 47.773 9.87517C50.9833 11.214 53.8972 13.1759 56.3468 15.6478H56.3422Z" fill="#1D3244"/>
<path d="M71.541 45.7291C71.7145 43.9386 71.2034 42.1489 70.1108 40.7211C70.1541 40.6394 70.1875 40.5528 70.2102 40.4631C71.1536 35.6582 71.0226 30.7037 69.8266 25.9556C68.6306 21.2074 66.3993 16.7834 63.2931 13.0015C60.1868 9.21953 56.2827 6.17349 51.8612 4.08218C47.4396 1.99087 42.6105 0.906214 37.7206 0.906128H37.5542C32.664 0.905702 27.8345 1.98998 23.4125 4.08107C18.9905 6.17215 15.086 9.21812 11.9793 13.0001C8.8727 16.7821 6.64112 21.2063 5.44495 25.9547C4.24878 30.7031 4.1177 35.6579 5.06114 40.4631C5.08524 40.5512 5.12016 40.6359 5.16511 40.7153C4.06877 42.1436 3.55586 43.936 3.73037 45.7291C2.39553 46.8298 1.43363 48.3173 0.976733 49.9874C0.519836 51.6575 0.590338 53.4283 1.17856 55.0567L5.25637 66.3821C5.82971 67.997 6.88715 69.3952 8.28411 70.3854C9.68106 71.3756 11.3493 71.9095 13.0608 71.9141C13.1001 71.9141 13.1394 71.9083 13.1763 71.9083C13.8186 72.8459 14.6789 73.6128 15.6832 74.1431C16.6874 74.6733 17.8054 74.951 18.9407 74.952C20.1373 74.9504 21.3144 74.648 22.3641 74.0726C23.4137 73.4972 24.3024 72.6672 24.9486 71.6586C25.5948 70.65 25.9778 69.4951 26.0626 68.2997C26.1474 67.1044 25.9313 65.9069 25.434 64.8169C22.2301 57.8394 19.6224 50.6025 17.6388 43.184C17.3854 42.2336 16.937 41.3465 16.3222 40.5793C15.7073 39.8121 14.9396 39.1817 14.0678 38.7282C13.1961 38.2747 12.2396 38.0082 11.2593 37.9456C10.279 37.883 9.29639 38.0257 8.37422 38.3646C7.94872 38.5215 7.53877 38.7179 7.14972 38.9511C6.4412 34.5438 6.69684 30.035 7.89897 25.7364C9.10109 21.4377 11.221 17.4518 14.1122 14.054C17.0034 10.6563 20.597 7.92781 24.6444 6.05721C28.6918 4.18661 33.0966 3.2185 37.5542 3.21981H37.7206C42.1777 3.21878 46.5819 4.18692 50.6288 6.05732C54.6757 7.92772 58.2688 10.6558 61.1598 14.053C64.0508 17.4501 66.1707 21.4354 67.3731 25.7334C68.5755 30.0314 68.8317 34.5396 68.1239 38.9465C67.7348 38.7136 67.3249 38.5176 66.8994 38.3611C65.9773 38.022 64.9948 37.8792 64.0145 37.9416C63.0342 38.004 62.0776 38.2705 61.2059 38.7238C60.3341 39.1772 59.5663 39.8076 58.9515 40.5747C58.3366 41.3419 57.8882 42.229 57.6348 43.1794C57.3068 44.4079 56.9602 45.6315 56.5952 46.85C56.5104 47.1433 56.5448 47.4583 56.691 47.7263C56.8372 47.9943 57.0833 48.1935 57.3756 48.2805C57.6678 48.3676 57.9826 48.3353 58.2513 48.1909C58.5199 48.0464 58.7206 47.8015 58.8097 47.5094C59.177 46.2755 59.5278 45.0319 59.862 43.7786C60.0297 43.1371 60.3306 42.5381 60.745 42.0208C61.1594 41.5036 61.6781 41.0796 62.2671 40.7766C62.854 40.4727 63.4975 40.2941 64.1569 40.2521C64.8162 40.2101 65.4771 40.3056 66.0977 40.5325C67.2165 40.9534 68.1416 41.7717 68.6967 42.8315C69.2519 43.8914 69.3983 45.1187 69.1081 46.2797C67.0045 54.398 64.1564 62.3042 60.6002 69.8978C60.0984 70.9795 59.2073 71.8316 58.1051 72.2837C57.003 72.7358 55.771 72.7546 54.6556 72.3364C54.0317 72.1047 53.4621 71.7467 52.9825 71.2847C52.5029 70.8227 52.1236 70.2667 51.8681 69.6514C51.6093 69.0377 51.4815 68.3766 51.493 67.7106C51.5046 67.0446 51.6552 66.3883 51.9351 65.784C53.9722 61.3465 55.7733 56.8042 57.331 52.1761C57.4287 51.8847 57.4069 51.5662 57.2702 51.2909C57.1335 51.0156 56.8931 50.806 56.6021 50.7081C56.311 50.6102 55.9931 50.6321 55.7182 50.769C55.4432 50.9059 55.2339 51.1466 55.1362 51.4381C53.6045 55.9885 51.833 60.4543 49.8292 64.8169C49.3319 65.9069 49.1158 67.1044 49.2006 68.2997C49.2854 69.4951 49.6685 70.65 50.3147 71.6586C50.9608 72.6672 51.8495 73.4972 52.8992 74.0726C53.9488 74.648 55.1259 74.9504 56.3225 74.952C57.4578 74.951 58.5758 74.6733 59.5801 74.1431C60.5843 73.6128 61.4447 72.8459 62.0869 71.9083C62.125 71.9083 62.1643 71.9141 62.2024 71.9141C63.9157 71.9118 65.5864 71.3791 66.9856 70.3889C68.3848 69.3988 69.4441 67.9997 70.0184 66.3833L74.0962 55.059C74.6844 53.4299 74.7546 51.6585 74.297 49.9879C73.8395 48.3174 72.8767 46.8296 71.541 45.7291ZM7.43043 65.5978L3.35147 54.2712C2.99549 53.2859 2.89915 52.2253 3.07175 51.1918C3.24435 50.1584 3.68007 49.1869 4.33684 48.3713C6.29694 55.6005 8.83977 62.6584 11.9403 69.4755C10.9172 69.2765 9.96353 68.8143 9.17283 68.1344C8.38213 67.4546 7.78167 66.5804 7.43043 65.5978ZM9.17245 40.5325C9.79341 40.304 10.4552 40.2077 11.1154 40.2497C11.7756 40.2918 12.4199 40.4713 13.0069 40.7767C13.594 41.0822 14.1109 41.507 14.5248 42.0239C14.9386 42.5407 15.2403 43.1384 15.4105 43.7786C17.4283 51.3245 20.0801 58.6859 23.3373 65.784C23.6173 66.3883 23.7679 67.0446 23.7794 67.7106C23.791 68.3766 23.6632 69.0377 23.4043 69.6514C23.1489 70.2667 22.7696 70.8227 22.29 71.2847C21.8104 71.7467 21.2408 72.1047 20.6169 72.3364C19.5015 72.7552 18.2693 72.7367 17.1671 72.2845C16.0648 71.8323 15.1737 70.9798 14.6723 69.8978C11.1153 62.3043 8.26645 54.398 6.16203 46.2797C5.87186 45.1187 6.01831 43.8914 6.57346 42.8315C7.12861 41.7717 8.05369 40.9534 9.17245 40.5325ZM71.9222 54.2723L67.8444 65.5978C67.4935 66.5798 66.8938 67.4536 66.1039 68.1334C65.3141 68.8132 64.3613 69.2757 63.3391 69.4755C66.4398 62.6588 68.9826 55.6013 70.9426 48.3724C71.5983 49.1887 72.0329 50.1604 72.2045 51.1938C72.3761 52.2272 72.2788 53.2875 71.9222 54.2723Z" fill="#1D3244"/>
<path d="M43.1822 44.8891L31.6304 47.2028C31.3695 47.2561 31.1349 47.3981 30.9665 47.6047C30.7981 47.8113 30.7062 48.0698 30.7062 48.3365V56.6472C30.3363 56.5102 29.9455 56.4382 29.551 56.4344C28.8656 56.4344 28.1956 56.6379 27.6257 57.0192C27.0558 57.4006 26.6116 57.9426 26.3493 58.5768C26.087 59.2109 26.0184 59.9087 26.1521 60.5819C26.2858 61.2552 26.6159 61.8735 27.1005 62.3589C27.5852 62.8443 28.2027 63.1748 28.8749 63.3087C29.5472 63.4426 30.244 63.3739 30.8773 63.1112C31.5105 62.8485 32.0517 62.4037 32.4325 61.833C32.8133 61.2623 33.0166 60.5913 33.0166 59.9049V53.9124L42.2581 52.0615V54.3335C41.8881 54.1965 41.4973 54.1245 41.1029 54.1207C40.4175 54.1207 39.7475 54.3242 39.1775 54.7056C38.6076 55.0869 38.1634 55.6289 37.9011 56.2631C37.6388 56.8972 37.5702 57.595 37.7039 58.2683C37.8377 58.9415 38.1677 59.5599 38.6524 60.0452C39.1371 60.5306 39.7546 60.8611 40.4268 60.995C41.0991 61.1289 41.7959 61.0602 42.4291 60.7975C43.0624 60.5349 43.6036 60.09 43.9844 59.5193C44.3652 58.9486 44.5685 58.2776 44.5685 57.5912V46.0228C44.5685 45.8512 44.5304 45.6818 44.457 45.5268C44.3836 45.3718 44.2767 45.2351 44.144 45.1266C44.0113 45.018 43.8561 44.9404 43.6898 44.8994C43.5235 44.8583 43.3501 44.8548 43.1822 44.8891ZM29.551 61.0617C29.3226 61.0617 29.0992 60.9939 28.9093 60.8668C28.7193 60.7396 28.5712 60.559 28.4838 60.3476C28.3964 60.1362 28.3735 59.9036 28.4181 59.6792C28.4626 59.4548 28.5726 59.2487 28.7342 59.0869C28.8958 58.9251 29.1016 58.8149 29.3257 58.7703C29.5498 58.7256 29.782 58.7485 29.9931 58.8361C30.2042 58.9237 30.3846 59.0719 30.5115 59.2622C30.6385 59.4524 30.7062 59.6761 30.7062 59.9049C30.7062 60.2117 30.5845 60.5059 30.3679 60.7229C30.1512 60.9398 29.8574 61.0617 29.551 61.0617ZM33.0166 51.5525V49.2839L42.2581 47.433V49.7004L33.0166 51.5525ZM41.1029 58.748C40.8744 58.748 40.6511 58.6802 40.4611 58.5531C40.2712 58.426 40.1231 58.2453 40.0357 58.0339C39.9482 57.8225 39.9253 57.5899 39.9699 57.3655C40.0145 57.1411 40.1245 56.935 40.2861 56.7732C40.4476 56.6114 40.6535 56.5012 40.8775 56.4566C41.1016 56.412 41.3339 56.4349 41.545 56.5224C41.7561 56.61 41.9365 56.7583 42.0634 56.9485C42.1903 57.1387 42.2581 57.3624 42.2581 57.5912C42.2581 57.898 42.1364 58.1923 41.9197 58.4092C41.7031 58.6262 41.4093 58.748 41.1029 58.748Z" fill="#1D3244"/>
<path d="M52.6548 30.984C51.9694 30.984 51.2993 31.1875 50.7294 31.5688C50.1595 31.9502 49.7153 32.4922 49.453 33.1264C49.1907 33.7605 49.1221 34.4583 49.2558 35.1315C49.3895 35.8048 49.7196 36.4231 50.2043 36.9085C50.6889 37.3939 51.3064 37.7244 51.9787 37.8583C52.6509 37.9922 53.3477 37.9235 53.981 37.6608C54.6142 37.3981 55.1555 36.9533 55.5363 36.3826C55.9171 35.8119 56.1203 35.1409 56.1203 34.4545V22.8861C56.1204 22.7145 56.0823 22.5451 56.0089 22.3901C55.9355 22.2351 55.8285 22.0984 55.6959 21.9898C55.5632 21.8813 55.408 21.8037 55.2417 21.7626C55.0754 21.7216 54.902 21.7181 54.7341 21.7524L43.1823 24.0661C42.9213 24.1194 42.6868 24.2614 42.5184 24.468C42.35 24.6746 42.2581 24.9331 42.2581 25.1998V33.5105C41.8881 33.3735 41.4973 33.3015 41.1029 33.2976C40.4175 33.2976 39.7475 33.5012 39.1776 33.8825C38.6077 34.2639 38.1635 34.8059 37.9012 35.4401C37.6389 36.0742 37.5702 36.772 37.704 37.4452C37.8377 38.1184 38.1677 38.7368 38.6524 39.2222C39.1371 39.7075 39.7546 40.0381 40.4268 40.172C41.0991 40.3059 41.7959 40.2372 42.4291 39.9745C43.0624 39.7118 43.6036 39.267 43.9844 38.6963C44.3652 38.1256 44.5685 37.4546 44.5685 36.7682V30.7757L53.81 28.9248V31.1968C53.44 31.0598 53.0492 30.9878 52.6548 30.984ZM52.6548 35.6113C52.4263 35.6113 52.203 35.5435 52.013 35.4164C51.823 35.2892 51.675 35.1086 51.5875 34.8972C51.5001 34.6858 51.4772 34.4532 51.5218 34.2288C51.5664 34.0044 51.6764 33.7983 51.8379 33.6365C51.9995 33.4747 52.2053 33.3645 52.4294 33.3199C52.6535 33.2752 52.8858 33.2981 53.0969 33.3857C53.3079 33.4733 53.4884 33.6215 53.6153 33.8118C53.7422 34.002 53.81 34.2257 53.81 34.4545C53.81 34.7613 53.6883 35.0555 53.4716 35.2725C53.255 35.4894 52.9612 35.6113 52.6548 35.6113ZM41.1029 37.925C40.8744 37.925 40.6511 37.8572 40.4611 37.73C40.2712 37.6029 40.1231 37.4222 40.0357 37.2109C39.9482 36.9995 39.9254 36.7669 39.9699 36.5425C40.0145 36.3181 40.1245 36.1119 40.2861 35.9502C40.4476 35.7884 40.6535 35.6782 40.8776 35.6335C41.1016 35.5889 41.3339 35.6118 41.545 35.6994C41.7561 35.7869 41.9365 35.9352 42.0634 36.1255C42.1904 36.3157 42.2581 36.5394 42.2581 36.7682C42.2581 37.075 42.1364 37.3692 41.9198 37.5862C41.7031 37.8031 41.4093 37.925 41.1029 37.925ZM44.5685 28.4158V26.1484L53.81 24.2974V26.5648L44.5685 28.4158Z" fill="#1D3244"/>
</svg>
