<svg width="86" height="82" viewBox="0 0 86 82" fill="none" xmlns="http://www.w3.org/2000/svg">
<path d="M23.1485 52.3838C23.9459 51.9232 24.2189 50.9009 23.7589 50.1024C23.2984 49.3046 22.2782 49.0306 21.4808 49.4911C20.6835 49.9524 20.4099 50.9746 20.8704 51.7725C21.3304 52.571 22.3512 52.845 23.1485 52.3838Z" fill="#1D3244"/>
<path d="M16.3142 63.9107L24.7127 78.479C26.525 81.626 30.6017 82.7912 33.8257 80.9247C37.0159 79.0785 38.1122 74.9966 36.2667 71.7993L31.2636 63.1201L35.5964 60.6149C36.3937 60.153 36.6673 59.1321 36.2068 58.3336L34.0381 54.572C34.2967 54.5217 35.997 54.1877 65.981 48.2974C69.6878 48.0958 71.9085 44.0361 70.0363 40.7905L64.4938 31.1771L68.0357 25.8047C68.3836 25.2763 68.4044 24.5972 68.0885 24.0492L64.7531 18.2639C64.4371 17.7159 63.8371 17.3949 63.2085 17.4321L56.7924 17.8177L50.6395 7.14478C49.7483 5.59864 48.1517 4.66248 46.3693 4.6403C46.3478 4.63965 46.327 4.63965 46.3055 4.63965C44.583 4.63965 43.0196 5.49818 42.0932 6.94972L20.3076 34.7423L6.14455 42.9309C0.574042 46.1504 -1.35554 53.307 1.87172 58.9005C4.82016 64.0151 11.0362 66.0271 16.3142 63.9107ZM33.3788 73.47C34.3 75.0657 33.7547 77.1077 32.1567 78.0321C30.5535 78.9604 28.5119 78.3903 27.6012 76.8095L19.2627 62.3444L25.0397 59.0042C34.6902 75.7455 33.2238 73.2019 33.3788 73.47ZM29.5959 60.2268L27.9282 57.3341L30.8167 55.664L32.4844 58.5567L29.5959 60.2268ZM62.3799 20.8277L64.6847 24.8255L62.6294 27.9426L58.6568 21.0515L62.3799 20.8277ZM44.8827 8.78094C45.3302 8.04767 46.0403 7.97199 46.3283 7.97982C46.6129 7.98308 47.3224 8.07181 47.7504 8.81421L67.1478 42.4606C67.7797 43.5559 67.0116 44.9331 65.7446 44.9644C65.5172 44.9696 65.4123 45.0107 64.8299 45.1197L44.3114 9.52922C44.742 8.9747 44.7974 8.9212 44.8827 8.78094ZM42.0919 12.3605L61.3701 45.7994L32.2753 51.5143L23.4287 36.1697L42.0919 12.3605ZM4.76023 57.2304C4.028 55.9615 3.64104 54.5211 3.64104 53.0637C3.64104 50.0849 5.23969 47.311 7.81224 45.8236L20.8105 38.3082L29.149 52.7714L16.1507 60.2874C12.1685 62.589 7.05917 61.2177 4.76023 57.2304Z" fill="#1D3244"/>
<path d="M17.9819 53.4427C17.5214 52.6442 16.5012 52.3702 15.7038 52.8314L12.8153 54.5015C12.0193 54.9621 10.9971 54.6874 10.5372 53.8902C10.0767 53.0917 9.05649 52.8177 8.25913 53.2789C7.46176 53.7402 7.18815 54.7618 7.64872 55.5603C9.02132 57.9415 12.0831 58.7811 14.483 57.3941L17.3715 55.7241C18.1689 55.2628 18.4425 54.2419 17.9819 53.4427Z" fill="#1D3244"/>
<path d="M83.2144 8.2119L73.9215 13.3905C73.117 13.8393 72.8271 14.8564 73.2753 15.662C73.7222 16.4671 74.7371 16.7587 75.5436 16.3092L84.8358 11.1306C85.641 10.6818 85.9302 9.66474 85.482 8.85906C85.0345 8.05272 84.0189 7.76306 83.2144 8.2119Z" fill="#1D3244"/>
<path d="M82.2398 25.5091L75.7964 23.7803C74.9065 23.5415 73.9919 24.0699 73.7534 24.9611C73.515 25.8522 74.0433 26.7675 74.9332 27.0063L81.3773 28.7351C82.2724 28.9758 83.1824 28.4389 83.4196 27.5543C83.658 26.6631 83.1297 25.7472 82.2398 25.5091Z" fill="#1D3244"/>
<path d="M66.0475 2.14429L64.3192 8.59761C64.0808 9.48875 64.6084 10.404 65.4983 10.6435C66.3875 10.8816 67.3021 10.3545 67.5412 9.46266L69.2689 3.00934C69.5073 2.1182 68.9796 1.20226 68.0897 0.963488C67.2005 0.724718 66.2859 1.25314 66.0475 2.14429Z" fill="#1D3244"/>
</svg>
