<svg width="85" height="76" viewBox="0 0 85 76" fill="none" xmlns="http://www.w3.org/2000/svg">
<path d="M42.4267 16.5514C41.5245 16.5514 40.7921 17.2848 40.7921 18.1883C40.7921 19.0918 41.5245 19.8252 42.4267 19.8252C43.3289 19.8252 44.0612 19.0918 44.0612 18.1883C44.0612 17.2848 43.3289 16.5514 42.4267 16.5514Z" fill="#1D3244"/>
<path d="M15.2926 46.016C16.1948 46.016 16.9272 45.2826 16.9272 44.3791C16.9272 43.4756 16.1948 42.7422 15.2926 42.7422C14.3904 42.7422 13.6581 43.4756 13.6581 44.3791C13.6581 45.2826 14.3904 46.016 15.2926 46.016Z" fill="#1D3244"/>
<path d="M55.5033 0.182373C40.7876 0.182373 28.7096 10.3428 27.7754 23.1408C13.7608 23.8448 0.58139 33.965 0.58139 47.6531C0.58139 53.3733 2.84171 58.9159 6.95625 63.3074C7.77035 66.6682 6.78194 70.2304 4.32943 72.6864C3.86204 73.1545 3.72221 73.8585 3.97506 74.4704C4.22791 75.0817 4.82364 75.4807 5.48513 75.4807C10.1469 75.4807 14.6394 73.6501 17.9775 70.4242C21.2295 71.5342 25.4723 72.2069 29.35 72.2069C44.0638 72.2069 56.1405 62.049 57.0772 49.2535C60.4996 49.1014 64.0593 48.4683 66.8758 47.5073C70.2139 50.7332 74.7064 52.5638 79.3682 52.5638C80.0297 52.5638 80.6254 52.1648 80.8782 51.5535C81.1311 50.9416 80.9912 50.2376 80.5239 49.7696C78.0714 47.3135 77.0829 43.7513 77.897 40.3905C82.0116 35.999 84.2719 30.4565 84.2719 24.7362C84.2719 10.5135 70.0772 0.182373 55.5033 0.182373ZM29.35 68.933C25.4921 68.933 21.096 68.1747 18.1512 67.0013C17.5204 66.7494 16.7995 66.915 16.3404 67.417C14.3668 69.5776 11.8006 71.0841 9.00459 71.7766C10.5453 68.8205 10.9386 65.3356 10.0013 62.0337C9.92723 61.7734 9.78995 61.5356 9.60159 61.3418C5.89314 57.5168 3.85055 52.6553 3.85055 47.6531C3.85055 36.1179 15.5276 26.3731 29.35 26.3731C42.4024 26.3731 53.8687 35.4625 53.8687 47.6531C53.8687 59.3871 42.8698 68.933 29.35 68.933ZM75.2517 38.4249C75.0633 38.6193 74.9261 38.8572 74.852 39.1168C73.9147 42.4188 74.308 45.9036 75.8487 48.8597C73.0527 48.1678 70.4865 46.6607 68.5129 44.5001C68.0538 43.9988 67.3329 43.8325 66.7021 44.0845C64.15 45.1011 60.5092 45.8051 57.0721 45.9752C56.5945 39.785 53.5111 33.9669 48.2396 29.6469H69.5607C70.4635 29.6469 71.1953 28.9142 71.1953 28.01C71.1953 27.1059 70.4635 26.3731 69.5607 26.3731H43.2178C39.5074 24.4817 35.3411 23.3787 31.0529 23.1472C31.9921 12.153 42.5997 3.45621 55.5033 3.45621C69.3257 3.45621 81.0027 13.201 81.0027 24.7362C81.0027 29.7384 78.9602 34.5999 75.2517 38.4249Z" fill="#1D3244"/>
<path d="M42.4267 42.7422H21.8309C20.9281 42.7422 20.1964 43.475 20.1964 44.3791C20.1964 45.2833 20.9281 46.016 21.8309 46.016H42.4267C43.3295 46.016 44.0612 45.2833 44.0612 44.3791C44.0612 43.475 43.3295 42.7422 42.4267 42.7422Z" fill="#1D3244"/>
<path d="M42.4267 52.5638H15.2926C14.3898 52.5638 13.6581 53.2966 13.6581 54.2008C13.6581 55.1049 14.3898 55.8377 15.2926 55.8377H42.4267C43.3295 55.8377 44.0612 55.1049 44.0612 54.2008C44.0612 53.2966 43.3295 52.5638 42.4267 52.5638Z" fill="#1D3244"/>
<path d="M69.5607 16.5514H48.9649C48.0621 16.5514 47.3304 17.2842 47.3304 18.1883C47.3304 19.0925 48.0621 19.8252 48.9649 19.8252H69.5607C70.4635 19.8252 71.1952 19.0925 71.1952 18.1883C71.1952 17.2842 70.4635 16.5514 69.5607 16.5514Z" fill="#1D3244"/>
</svg>
