<svg width="15" height="15" viewBox="0 0 15 15" fill="none" xmlns="http://www.w3.org/2000/svg">
<path d="M13.8597 15L8.48268 9.62994C8.09005 9.96593 7.62475 10.2233 7.08675 10.4021C6.54878 10.5808 5.97816 10.6702 5.37491 10.6702C3.87366 10.6702 2.60254 10.1491 1.56152 9.10693C0.520507 8.06474 0 6.80762 0 5.33558C0 3.86354 0.518846 2.60626 1.55654 1.56376C2.59424 0.521253 3.85379 0 5.33517 0C6.81656 0 8.07472 0.521301 9.10964 1.5639C10.1446 2.60649 10.6621 3.86511 10.6621 5.33977C10.6621 5.92871 10.5729 6.48713 10.3946 7.01503C10.2162 7.54292 9.9521 8.03891 9.60221 8.50299L15 13.8588L13.8597 15ZM5.35542 9.10866C6.40164 9.10866 7.28757 8.74166 8.01321 8.00766C8.73885 7.27365 9.10167 6.3824 9.10167 5.33391C9.10167 4.28542 8.73829 3.39458 8.01153 2.66138C7.28476 1.92817 6.3977 1.56156 5.35034 1.56156C4.29168 1.56156 3.39536 1.92856 2.66137 2.66256C1.92738 3.39657 1.56038 4.28782 1.56038 5.33631C1.56038 6.3848 1.92709 7.27565 2.66051 8.00884C3.39395 8.74205 4.29225 9.10866 5.35542 9.10866Z" fill="#AA0E00"/>
</svg>
