<svg width="89" height="82" viewBox="0 0 89 82" fill="none" xmlns="http://www.w3.org/2000/svg">
<path d="M45.8347 35.649C45.5833 35.6493 45.3364 35.5812 45.1206 35.452C44.9048 35.3228 44.7281 35.1372 44.6094 34.9152C42.7151 31.3595 39.8917 28.386 36.441 26.3124C32.9903 24.2388 29.0419 23.1429 25.0176 23.1419C20.9933 23.1409 17.0443 24.2348 13.5925 26.3067C10.1408 28.3786 7.316 31.3507 5.41994 34.9055C5.24622 35.2306 4.95067 35.4732 4.59829 35.5801C4.24591 35.6869 3.86558 35.6492 3.54096 35.4753C3.21634 35.3013 2.97403 35.0053 2.86733 34.6524C2.76062 34.2996 2.79827 33.9187 2.97199 33.5936C5.10527 29.5952 8.28303 26.2523 12.1659 23.9218C16.0487 21.5914 20.4908 20.3609 25.0176 20.3619C29.5444 20.3629 33.9859 21.5953 37.8677 23.9275C41.7495 26.2597 44.9258 29.604 47.0573 33.6033C47.1705 33.815 47.227 34.0524 47.2212 34.2924C47.2155 34.5325 47.1478 34.7669 47.0247 34.973C46.9015 35.179 46.7272 35.3495 46.5187 35.468C46.3101 35.5865 46.0745 35.6488 45.8347 35.649Z" fill="#1D3244"/>
<path d="M25.0119 70.3919C21.1037 70.3889 17.2507 69.4683 13.7622 67.704C10.2736 65.9397 7.2467 63.381 4.92445 60.2331C2.60219 57.0852 1.04929 53.4359 0.390399 49.5782C-0.26849 45.7204 -0.0150068 41.7617 1.1305 38.0198C1.2387 37.6675 1.48225 37.3726 1.80756 37.2001C2.13288 37.0276 2.5133 36.9915 2.86516 37.0999C3.21701 37.2082 3.51147 37.4521 3.68376 37.7779C3.85604 38.1037 3.89204 38.4846 3.78383 38.837C2.49287 43.047 2.47884 47.5461 3.74352 51.7641C5.00819 55.9822 7.49466 59.7294 10.8879 62.5309C14.2811 65.3325 18.4284 67.0624 22.8043 67.5014C27.1801 67.9404 31.5877 67.0688 35.4684 64.997C35.793 64.823 36.1734 64.7853 36.5258 64.8922C36.8781 64.999 37.1737 65.2417 37.3474 65.5668C37.5211 65.8918 37.5588 66.2727 37.4521 66.6256C37.3454 66.9785 37.1031 67.2745 36.7784 67.4484C33.1566 69.381 29.1158 70.3919 25.0119 70.3919Z" fill="#1D3244"/>
<path d="M7.03527 62.0536C6.76515 62.0538 6.50085 61.975 6.27477 61.827C6.04869 61.679 5.87066 61.4681 5.76252 61.2202C5.65438 60.9723 5.62082 60.6983 5.66597 60.4316C5.71111 60.1649 5.833 59.9172 6.01668 59.7188C10.302 55.0897 17.4085 52.3256 25.0424 52.3256C29.0332 52.3029 32.9875 53.0865 36.6688 54.6297C36.8363 54.7018 36.9879 54.8062 37.1151 54.937C37.2423 55.0678 37.3425 55.2224 37.41 55.3919C37.4776 55.5615 37.5111 55.7427 37.5087 55.9253C37.5062 56.1078 37.468 56.2881 37.396 56.4558C37.324 56.6235 37.2197 56.7754 37.0891 56.9027C36.9585 57.0301 36.8042 57.1305 36.6348 57.1981C36.4655 57.2657 36.2845 57.2993 36.1023 57.2968C35.92 57.2944 35.74 57.2561 35.5725 57.184C32.2376 55.7895 28.6563 55.0824 25.0424 55.105C18.1676 55.105 11.816 57.5356 8.05386 61.6088C7.92383 61.7492 7.76623 61.8612 7.59095 61.9377C7.41567 62.0143 7.22648 62.0537 7.03527 62.0536Z" fill="#1D3244"/>
<path d="M25.0424 38.4284C17.4099 38.4284 10.2964 35.6643 6.01666 31.0352L8.05385 29.1451C11.816 33.2184 18.1676 35.649 25.0424 35.649C31.9172 35.649 38.2702 33.2184 42.0351 29.1451L44.0695 31.0352C39.7898 35.6643 32.6763 38.4284 25.0424 38.4284Z" fill="#1D3244"/>
<path d="M36.1137 46.7666H1.42052C1.05247 46.7666 0.699496 46.6202 0.439247 46.3596C0.178998 46.099 0.0327911 45.7455 0.0327911 45.3769C0.0327911 45.0083 0.178998 44.6548 0.439247 44.3942C0.699496 44.1336 1.05247 43.9872 1.42052 43.9872H36.1137C36.4818 43.9872 36.8347 44.1336 37.095 44.3942C37.3552 44.6548 37.5014 45.0083 37.5014 45.3769C37.5014 45.7455 37.3552 46.099 37.095 46.3596C36.8347 46.6202 36.4818 46.7666 36.1137 46.7666Z" fill="#1D3244"/>
<path d="M23.6242 21.7517H26.3996V69.002H23.6242V21.7517Z" fill="#1D3244"/>
<path d="M63.8683 81.5096C60.0727 81.5079 56.3274 80.6401 52.9168 78.972C49.5062 77.3039 46.5201 74.8794 44.1852 71.8826C41.8504 68.8858 40.2282 65.3956 39.4419 61.677C38.6555 57.9585 38.7257 54.1093 39.6472 50.422C40.5686 46.7347 42.317 43.3061 44.7596 40.3967C47.2023 37.4874 50.2748 35.1737 53.7439 33.6315C57.2131 32.0892 60.9875 31.359 64.7807 31.4962C68.5738 31.6334 72.2858 32.6344 75.6348 34.4233C75.7955 34.5094 75.9378 34.6264 76.0533 34.7676C76.1689 34.9088 76.2556 35.0714 76.3084 35.2461C76.3613 35.4208 76.3792 35.6043 76.3613 35.7859C76.3433 35.9676 76.2898 36.144 76.2038 36.3049C76.1178 36.4659 76.0009 36.6083 75.8599 36.7241C75.719 36.8398 75.5566 36.9266 75.3821 36.9795C75.2076 37.0325 75.0245 37.0504 74.843 37.0324C74.6616 37.0145 74.4855 36.9609 74.3248 36.8747C69.3032 34.185 63.4424 33.5276 57.951 35.0379C52.4596 36.5483 47.7562 40.1112 44.8109 44.9921C41.8655 49.873 40.9027 55.6997 42.121 61.2706C43.3392 66.8415 46.6457 71.7318 51.3585 74.9332C56.0714 78.1345 61.8312 79.4028 67.4504 78.4765C73.0695 77.5501 78.1194 74.4998 81.5589 69.9545C84.9983 65.4092 86.5649 59.7155 85.9357 54.0475C85.3065 48.3795 82.5294 43.1694 78.1771 39.4916C78.0377 39.3739 77.9228 39.23 77.8389 39.0679C77.7551 38.9058 77.7039 38.7287 77.6884 38.5468C77.6729 38.365 77.6933 38.1818 77.7485 38.0078C77.8036 37.8338 77.8924 37.6724 78.0099 37.5328C78.1274 37.3931 78.2711 37.2781 78.433 37.1941C78.5948 37.1101 78.7716 37.0589 78.9533 37.0433C79.1349 37.0278 79.3178 37.0482 79.4916 37.1035C79.6653 37.1587 79.8265 37.2477 79.9659 37.3653C83.8828 40.6704 86.6905 45.1015 88.0084 50.0581C89.3263 55.0148 89.0909 60.2573 87.3339 65.0754C85.5769 69.8936 82.3834 74.0543 78.186 76.994C73.9886 79.9336 68.9903 81.51 63.8683 81.5096Z" fill="#1D3244"/>
<path d="M69.4192 64.8329H58.3174C58.0155 64.8329 57.7219 64.7345 57.481 64.5524C57.2401 64.3703 57.0651 64.1146 56.9824 63.8239L54.2069 54.0959C54.1264 53.8128 54.1377 53.5115 54.2392 53.2352C54.3407 52.959 54.5272 52.7222 54.7717 52.5589L63.0981 47C63.3261 46.8477 63.5941 46.7664 63.8683 46.7664C64.1424 46.7664 64.4104 46.8477 64.6385 47L72.9648 52.5589C73.2094 52.7222 73.3958 52.959 73.4973 53.2352C73.5988 53.5115 73.6102 53.8128 73.5296 54.0959L70.7542 63.8239C70.6715 64.1146 70.4964 64.3703 70.2555 64.5524C70.0146 64.7345 69.721 64.8329 69.4192 64.8329ZM59.3637 62.0534H68.3728L70.5821 54.3085L63.8683 49.8239L57.1544 54.3058L59.3637 62.0534Z" fill="#1D3244"/>
<path d="M63.8683 41.2078C63.5942 41.2079 63.3262 41.1267 63.0981 40.9744L54.7717 35.4155L56.3121 33.103L63.8683 38.1505L71.4244 33.1058L72.9648 35.4183L64.6385 40.9771C64.4101 41.1285 64.1421 41.2087 63.8683 41.2078Z" fill="#1D3244"/>
<path d="M41.1442 57.5798L39.4096 55.4091L45.7307 50.3464L44.4539 41.4049L47.2016 41.0103L48.5894 50.7383C48.6237 50.9777 48.5951 51.222 48.5062 51.447C48.4174 51.672 48.2715 51.8698 48.0829 52.021L41.1442 57.5798Z" fill="#1D3244"/>
<path d="M55.7445 79.3428L51.9338 70.5501L44.6746 71.7619L44.2194 69.0214L52.5458 67.6317C52.851 67.5809 53.1644 67.6338 53.4362 67.7818C53.708 67.9299 53.9226 68.1647 54.0459 68.4488L58.2965 78.2366L55.7445 79.3428Z" fill="#1D3244"/>
<path d="M72.1225 79.1691L69.4858 78.2908L72.2612 69.9525C72.3535 69.675 72.5309 69.4337 72.7681 69.2631C73.0053 69.0924 73.2903 69.001 73.5823 69.002H83.2964V71.7814H74.5829L72.1225 79.1691Z" fill="#1D3244"/>
<path d="M86.5923 57.58L79.6537 52.0211C79.4314 51.8431 79.2692 51.601 79.1891 51.3275C79.1089 51.0541 79.1146 50.7625 79.2054 50.4925L81.9809 42.1542L84.6176 43.0325L82.1488 50.4508L88.3325 55.4051L86.5923 57.58Z" fill="#1D3244"/>
<path d="M46.7815 52.2266L47.6581 49.5902L55.9879 52.3678L55.1113 55.0042L46.7815 52.2266Z" fill="#1D3244"/>
<path d="M62.4805 39.818H65.256V48.1563H62.4805V39.818Z" fill="#1D3244"/>
<path d="M71.812 52.3859L80.1417 49.5995L81.0211 52.2358L72.6914 55.0222L71.812 52.3859Z" fill="#1D3244"/>
<path d="M51.7723 68.0172L57.3233 62.4582L59.2859 64.4236L53.7348 69.9826L51.7723 68.0172Z" fill="#1D3244"/>
<path d="M68.1621 64.1608L70.5407 62.7321L74.6999 69.6768L72.3214 71.1054L68.1621 64.1608Z" fill="#1D3244"/>
<path d="M68.0009 30.0901H67.9329C67.7509 30.0814 67.5723 30.0368 67.4074 29.959C67.2426 29.8811 67.0946 29.7715 66.9721 29.6364C66.8495 29.5013 66.7547 29.3433 66.6932 29.1715C66.6316 28.9997 66.6044 28.8174 66.6132 28.6351C66.6326 28.2001 66.6437 27.7582 66.6437 27.3121C66.6736 23.685 65.9928 20.0872 64.6398 16.7225C64.5641 16.5526 64.5232 16.3693 64.5195 16.1833C64.5158 15.9973 64.5495 15.8125 64.6185 15.6398C64.6874 15.4671 64.7903 15.31 64.921 15.1779C65.0517 15.0457 65.2076 14.9412 65.3794 14.8705C65.5512 14.7997 65.7354 14.7643 65.9211 14.7662C66.1069 14.7681 66.2903 14.8073 66.4607 14.8815C66.631 14.9557 66.7847 15.0634 66.9127 15.1982C67.0407 15.333 67.1403 15.4922 67.2057 15.6663C68.6979 19.3652 69.4499 23.3215 69.4192 27.3107C69.4192 27.8013 69.4081 28.2835 69.3859 28.7671C69.3688 29.1235 69.2154 29.4597 68.9576 29.706C68.6998 29.9523 68.3572 30.0898 68.0009 30.0901Z" fill="#1D3244"/>
<path d="M33.3383 19.4449C33.1205 19.4447 32.9058 19.3932 32.7116 19.2945C32.5174 19.1958 32.3491 19.0527 32.2203 18.8768C32.0916 18.701 32.006 18.4972 31.9704 18.282C31.9349 18.0669 31.9504 17.8463 32.0157 17.6383C35.4851 6.7193 44.6843 0.906128 49.991 0.906128C54.0154 0.906128 60.6224 4.54023 64.9271 11.2748C65.0303 11.4284 65.1018 11.6012 65.1374 11.7828C65.173 11.9645 65.172 12.1515 65.1344 12.3328C65.0968 12.5141 65.0234 12.686 64.9186 12.8385C64.8137 12.991 64.6795 13.121 64.5238 13.2208C64.3681 13.3207 64.194 13.3883 64.0118 13.4198C63.8296 13.4514 63.643 13.4461 63.4628 13.4044C63.2827 13.3626 63.1127 13.2853 62.9629 13.1768C62.813 13.0684 62.6863 12.9311 62.5902 12.7729C58.5824 6.5039 52.8095 3.68556 49.991 3.68556C46.4009 3.68556 37.9427 8.1521 34.6608 18.4777C34.5713 18.7585 34.3949 19.0036 34.1572 19.1775C33.9194 19.3514 33.6326 19.445 33.3383 19.4449Z" fill="#1D3244"/>
<path d="M49.991 34.2593C49.6229 34.2593 49.2699 34.1129 49.0097 33.8522C48.7494 33.5916 48.6032 33.2381 48.6032 32.8696V14.8033C48.6032 14.4347 48.7494 14.0812 49.0097 13.8206C49.2699 13.56 49.6229 13.4136 49.991 13.4136C50.359 13.4136 50.712 13.56 50.9722 13.8206C51.2325 14.0812 51.3787 14.4347 51.3787 14.8033V32.8696C51.3787 33.2381 51.2325 33.5916 50.9722 33.8522C50.712 34.1129 50.359 34.2593 49.991 34.2593Z" fill="#1D3244"/>
<path d="M52.7664 20.3619H47.2155C46.8475 20.3619 46.4945 20.2155 46.2343 19.9549C45.974 19.6943 45.8278 19.3408 45.8278 18.9722C45.8278 18.6037 45.974 18.2502 46.2343 17.9896C46.4945 17.7289 46.8475 17.5825 47.2155 17.5825H52.7664C53.1345 17.5825 53.4875 17.7289 53.7477 17.9896C54.008 18.2502 54.1542 18.6037 54.1542 18.9722C54.1542 19.3408 54.008 19.6943 53.7477 19.9549C53.4875 20.2155 53.1345 20.3619 52.7664 20.3619Z" fill="#1D3244"/>
<path d="M52.7664 25.921H47.2155C46.8475 25.921 46.4945 25.7746 46.2343 25.514C45.974 25.2534 45.8278 24.8999 45.8278 24.5313C45.8278 24.1627 45.974 23.8093 46.2343 23.5486C46.4945 23.288 46.8475 23.1416 47.2155 23.1416H52.7664C53.1345 23.1416 53.4875 23.288 53.7477 23.5486C54.008 23.8093 54.1542 24.1627 54.1542 24.5313C54.1542 24.8999 54.008 25.2534 53.7477 25.514C53.4875 25.7746 53.1345 25.921 52.7664 25.921Z" fill="#1D3244"/>
<path d="M52.7664 31.4797H47.2155C46.8475 31.4797 46.4945 31.3333 46.2343 31.0727C45.974 30.8121 45.8278 30.4586 45.8278 30.09C45.8278 29.7215 45.974 29.368 46.2343 29.1074C46.4945 28.8467 46.8475 28.7003 47.2155 28.7003H52.7664C53.1345 28.7003 53.4875 28.8467 53.7477 29.1074C54.008 29.368 54.1542 29.7215 54.1542 30.09C54.1542 30.4586 54.008 30.8121 53.7477 31.0727C53.4875 31.3333 53.1345 31.4797 52.7664 31.4797Z" fill="#1D3244"/>
<path d="M49.991 12.0237C46.1542 12.1484 42.373 11.0804 39.1667 8.96634C39.0209 8.85684 38.8981 8.71965 38.8052 8.56261C38.7124 8.40558 38.6513 8.23176 38.6256 8.0511C38.5998 7.87043 38.6098 7.68645 38.655 7.50966C38.7003 7.33287 38.7798 7.16674 38.8892 7.02074C38.9985 6.87474 39.1355 6.75173 39.2923 6.65875C39.4491 6.56577 39.6227 6.50463 39.8031 6.47882C39.9835 6.45301 40.1672 6.46304 40.3437 6.50833C40.5203 6.55362 40.6862 6.63329 40.832 6.74279C43.5628 8.48338 46.7558 9.35544 49.991 9.24428C53.2261 9.35544 56.4191 8.48338 59.15 6.74279C59.4444 6.52165 59.8145 6.42669 60.1789 6.47882C60.5432 6.53094 60.872 6.72588 61.0928 7.02074C61.3136 7.3156 61.4084 7.68623 61.3564 8.0511C61.3043 8.41597 61.1097 8.74519 60.8152 8.96634C57.609 11.0804 53.8278 12.1484 49.991 12.0237Z" fill="#1D3244"/>
</svg>
